<?xml version="1.0" encoding="UTF-8"?>
<svg id="_レイヤー_1" data-name="レイヤー 1" xmlns="http://www.w3.org/2000/svg" xmlns:xlink="http://www.w3.org/1999/xlink" viewBox="0 0 210 30">
  <defs>
    <style>
      .cls-1 {
        fill: url(#_名称未設定グラデーション_2);
      }

      .cls-1, .cls-2, .cls-3, .cls-4, .cls-5, .cls-6, .cls-7, .cls-8, .cls-9, .cls-10, .cls-11, .cls-12, .cls-13 {
        stroke-width: 0px;
      }

      .cls-2 {
        fill: url(#_名称未設定グラデーション_2-4);
      }

      .cls-3 {
        fill: url(#_名称未設定グラデーション_2-3);
      }

      .cls-4 {
        fill: url(#_名称未設定グラデーション_12);
      }

      .cls-5 {
        fill: url(#_名称未設定グラデーション_2-7);
      }

      .cls-6 {
        fill: url(#_名称未設定グラデーション_2-2);
      }

      .cls-7 {
        fill: url(#_名称未設定グラデーション_2-9);
      }

      .cls-8 {
        fill: url(#_名称未設定グラデーション_11);
      }

      .cls-9 {
        fill: #231815;
      }

      .cls-10 {
        fill: url(#_名称未設定グラデーション_2-8);
      }

      .cls-11 {
        fill: url(#_名称未設定グラデーション_2-10);
      }

      .cls-12 {
        fill: url(#_名称未設定グラデーション_2-6);
      }

      .cls-13 {
        fill: url(#_名称未設定グラデーション_2-5);
      }
    </style>
    <linearGradient id="_名称未設定グラデーション_2" data-name="名称未設定グラデーション 2" x1="167.6" y1="-3966.32" x2="167.6" y2="-3982.01" gradientTransform="translate(0 -3960) scale(1 -1)" gradientUnits="userSpaceOnUse">
      <stop offset="0" stop-color="#87cdd7"/>
      <stop offset="1" stop-color="#23b6bc"/>
    </linearGradient>
    <linearGradient id="_名称未設定グラデーション_2-2" data-name="名称未設定グラデーション 2" x1="133.65" y1="-3964.74" x2="133.65" y2="-3982" xlink:href="#_名称未設定グラデーション_2"/>
    <linearGradient id="_名称未設定グラデーション_2-3" data-name="名称未設定グラデーション 2" x1="128.13" y1="-3975.79" x2="128.13" y2="-3982.06" xlink:href="#_名称未設定グラデーション_2"/>
    <linearGradient id="_名称未設定グラデーション_2-4" data-name="名称未設定グラデーション 2" x1="139.18" y1="-3975.79" x2="139.18" y2="-3982.06" xlink:href="#_名称未設定グラデーション_2"/>
    <linearGradient id="_名称未設定グラデーション_2-5" data-name="名称未設定グラデーション 2" x1="184.02" y1="-3969.47" x2="184.02" y2="-3982.03" xlink:href="#_名称未設定グラデーション_2"/>
    <linearGradient id="_名称未設定グラデーション_2-6" data-name="名称未設定グラデーション 2" x1="177.07" y1="-3969.47" x2="177.07" y2="-3975.75" xlink:href="#_名称未設定グラデーション_2"/>
    <linearGradient id="_名称未設定グラデーション_2-7" data-name="名称未設定グラデーション 2" x1="199.17" y1="-3963.16" x2="199.17" y2="-3981.99" xlink:href="#_名称未設定グラデーション_2"/>
    <linearGradient id="_名称未設定グラデーション_2-8" data-name="名称未設定グラデーション 2" x1="145.49" y1="-3975.79" x2="145.49" y2="-3982.06" xlink:href="#_名称未設定グラデーション_2"/>
    <linearGradient id="_名称未設定グラデーション_2-9" data-name="名称未設定グラデーション 2" x1="156.55" y1="-3975.79" x2="156.55" y2="-3982.06" xlink:href="#_名称未設定グラデーション_2"/>
    <linearGradient id="_名称未設定グラデーション_2-10" data-name="名称未設定グラデーション 2" x1="151.02" y1="-3964.74" x2="151.02" y2="-3982" xlink:href="#_名称未設定グラデーション_2"/>
    <linearGradient id="_名称未設定グラデーション_11" data-name="名称未設定グラデーション 11" x1="83.57" y1="-3963.16" x2="83.57" y2="-3982.1" gradientTransform="translate(0 -3960) scale(1 -1)" gradientUnits="userSpaceOnUse">
      <stop offset="0" stop-color="#ed751f"/>
      <stop offset="1" stop-color="#e62128"/>
    </linearGradient>
    <linearGradient id="_名称未設定グラデーション_12" data-name="名称未設定グラデーション 12" x1="-2423.13" y1="-2346.32" x2="-2422.78" y2="-2346.32" gradientTransform="translate(-76001.26 78527.91) rotate(90) scale(32.4)" gradientUnits="userSpaceOnUse">
      <stop offset="0" stop-color="#ed751f"/>
      <stop offset=".9" stop-color="#e62128"/>
      <stop offset="1" stop-color="#e62128"/>
    </linearGradient>
  </defs>
  <g>
    <g>
      <polygon class="cls-1" points="174.7 6.32 173.12 6.32 171.23 6.32 160.49 6.32 160.49 9.47 169.97 9.47 167.58 15.42 166.81 14.21 165.8 12.63 162.01 12.63 163.02 14.21 168.07 22.1 171.86 22.1 169.72 18.76 174.7 6.32"/>
      <polygon class="cls-6" points="135.23 9.47 139.97 9.47 139.97 6.32 135.23 6.32 135.23 4.74 132.08 4.74 132.08 6.32 127.34 6.32 127.34 9.47 132.08 9.47 132.08 11.68 125.76 11.68 125.76 14.84 132.08 14.84 132.08 22.1 135.23 22.1 135.23 14.84 141.55 14.84 141.55 11.68 135.23 11.68 135.23 9.47"/>
      <polygon class="cls-3" points="125.76 22.1 128.92 22.1 130.5 15.79 130.5 15.79 127.34 15.79 125.76 22.1"/>
      <polygon class="cls-2" points="136.81 15.79 138.39 22.1 141.55 22.1 141.55 22.1 139.97 15.79 136.81 15.79"/>
      <polygon class="cls-13" points="183.54 14.21 182.6 9.47 180.39 9.47 179.44 9.47 179.12 9.47 180.39 15.79 182.91 15.79 180.39 22.1 183.86 22.1 188.91 9.47 188.91 9.47 185.44 9.47 183.54 14.21"/>
      <polygon class="cls-12" points="174.7 9.47 175.97 15.79 179.12 15.79 179.44 15.79 179.44 15.79 178.18 9.47 174.7 9.47"/>
      <path class="cls-5" d="M204.7,3.16c-1.74,0-3.16,1.41-3.16,3.16h-11.05v3.16h9.47l-3.79,9.47-1.26,3.16h3.47l1.26-3.16,3.88-9.7c.36.14.76.23,1.17.23,1.74,0,3.16-1.41,3.16-3.16h0c0-1.74-1.41-3.16-3.16-3.16h0ZM204.7,6.95c-.08,0-.16-.02-.24-.05-.23-.09-.4-.32-.4-.59h0c0-.35.28-.63.63-.63s.63.28.63.63-.28.63-.63.63Z"/>
      <polygon class="cls-10" points="143.13 22.1 146.28 22.1 147.86 15.79 147.86 15.79 144.71 15.79 143.13 22.1"/>
      <polygon class="cls-7" points="154.18 15.79 155.76 22.1 158.91 22.1 158.91 22.1 157.34 15.79 154.18 15.79"/>
      <polygon class="cls-11" points="157.34 14.84 158.91 14.84 158.91 14.84 157.73 10.1 154.57 10.1 154.97 11.68 152.6 11.68 152.6 9.47 158.91 9.47 158.91 6.32 152.6 6.32 152.6 4.74 149.44 4.74 149.44 6.32 143.13 6.32 143.13 9.47 149.44 9.47 149.44 11.68 147.07 11.68 147.47 10.1 144.31 10.1 143.13 14.84 144.71 14.84 146.28 14.84 149.44 14.84 149.44 22.1 152.6 22.1 152.6 14.84 155.76 14.84 157.34 14.84"/>
    </g>
    <path class="cls-8" d="M97.66,14.21l7.58,7.89h-4.74l-7.58-7.89,7.58-7.89h4.74l-7.58,7.89ZM53.45,17.37h-3.47l-.32,1.58v3.16h7.58l.63-3.16h-4.74l.32-1.58h0ZM56.93,14.21l.63-3.16h-6.95v3.16h6.32ZM57.56,6.32h-7.52l.26-1.58h-3.47l-.26,1.58h-2.9v3.16h2.38l-2.07,12.63h3.47l2.07-12.63h8.04v-3.16h0ZM70.82,14.21v-3.16h-7.89v-4.74h-3.16v15.79h3.16v-7.89h4.74v7.89h5.68l.63-3.16h-3.16v-4.74ZM75.87,22.1h3.16V6.32h-3.16v15.79ZM88.5,9.47v3.16h3.16l-.63,3.16h-2.53v6.32h-7.89v-9.47h4.74v-3.16h-4.74v-3.16h4.74v-1.58h3.16v1.58h2.84l-.63,3.16h-2.21ZM85.34,15.79h-1.58v3.16h1.58v-3.16ZM91.34,6.32c0-1.74,1.41-3.16,3.16-3.16s3.16,1.41,3.16,3.16h0c0,1.74-1.41,3.16-3.16,3.16s-3.16-1.41-3.16-3.16h0ZM93.87,6.32c0,.35.28.63.63.63s.63-.28.63-.63-.28-.63-.63-.63-.63.28-.63.63ZM107.84,10.66h13.58v8.21h-13.58v-8.21ZM111,12.87h7.26v-.63h-7.26v.63ZM111,15.08h7.26v-.63h-7.26v.63ZM111,17.29h7.26v-.63h-7.26v.63ZM106.54,22.1h4.42l1.3-2.68h-4.42l-1.3,2.68ZM109.97,8.53h.71v1.58h3.16v-1.58h.39l.39-1.58h-4.26l.16-.63h4.26l.39-1.58h-8.05l-.67,2.68-.67,2.68h3.79l.39-1.58h0ZM123.47,6.32v-1.58h-7.5l-.67,2.68-.67,2.68h3.79l.39-1.58h.71v1.58h3.16v-1.58h.79v-1.58h-4.26l.16-.63h4.11ZM117,19.42l1.3,2.68h4.42l-1.3-2.68h-4.42Z"/>
  </g>
  <g>
    <path class="cls-4" d="M36.33,20.6c-.75-1.27-2.08-1.98-3.46-1.98-.69,0-1.39.18-2.02.55-3.14,1.83-7.17,2.84-11.33,2.84s-8.19-1.01-11.33-2.84c-1.91-1.11-4.36-.47-5.48,1.43-1.12,1.9-.48,4.35,1.43,5.46,4.35,2.54,9.82,3.94,15.38,3.94s11.03-1.4,15.38-3.94c1.91-1.11,2.55-3.56,1.43-5.46h0Z"/>
    <path class="cls-9" d="M11.93,15.16V0h-7.58v15.16s7.58,0,7.58,0ZM10.03,13.26h-3.79v-4.74h3.79v4.74ZM10.03,6.63h-3.79V1.89h3.79v4.74ZM34.86,15.16h-2.08l-.19-.95-.38-1.89-.38-1.89-1.52-7.58h-5.12V.95h4.74l-.19-.95h2.08l.19.95h.57l-.19-.95h1.71l.19.95.38,1.89h-2.27l1.52,7.58.38,1.89.38,1.89.19.95ZM31.25,13.26l.38,1.89h-6.44v-1.89h1.52v-5.68h-1.52v-1.89h4.55l.38,1.89h-1.52v5.68h2.65ZM21.67,10.99l1.25,4.17h-8.71l2.27-7.58h2.08l-1.71,5.68h3.41l-.68-2.27h2.08ZM21.59,7.58l-2.27-7.58h2.08l2.27,7.58h-2.08ZM15.53,7.58h-2.08L15.72,0h2.08l-2.27,7.58Z"/>
  </g>
</svg>