<?xml version="1.0" encoding="UTF-8"?>
<svg id="_レイヤー_2" data-name="レイヤー 2" xmlns="http://www.w3.org/2000/svg" width="203.45" height="42.52" xmlns:xlink="http://www.w3.org/1999/xlink" viewBox="0 0 203.45 42.52">
  <defs>
    <style>
      .cls-1 {
        fill: url(#_名称未設定グラデーション_5);
      }

      .cls-1, .cls-2, .cls-3, .cls-4, .cls-5 {
        stroke-width: 0px;
      }

      .cls-2 {
        fill: none;
      }

      .cls-6 {
        clip-path: url(#clippath-1);
      }

      .cls-3 {
        fill: #231815;
      }

      .cls-4 {
        fill: url(#_名称未設定グラデーション_6);
      }

      .cls-7 {
        clip-path: url(#clippath);
      }

      .cls-5 {
        fill: #e6002d;
      }
    </style>
    <clipPath id="clippath">
      <path class="cls-2" d="M44.61,15.52v10.27h-13.79v-10.27h-3.03c-3.04.03-5.5,2.4-5.5,5.32v10.21h0l-13.75-13.75c-1.16-1.16-2.68-1.79-4.33-1.79H0v21.74c0,2.91,2.46,5.26,5.5,5.26h3.03v-15.53h0l13.75,13.75c1.16,1.16,2.68,1.79,4.33,1.79h4.22v-10.28h13.79v10.27h3.03c3.04,0,5.5-2.36,5.5-5.26v-16.41c0-2.92-2.46-5.29-5.5-5.32h-3.04Z"/>
    </clipPath>
    <linearGradient id="_名称未設定グラデーション_5" data-name="名称未設定グラデーション 5" x1="-123.49" y1="127.42" x2="-122.49" y2="127.42" gradientTransform="translate(-4259.32 4157.4) rotate(90) scale(33.64 -33.64)" gradientUnits="userSpaceOnUse">
      <stop offset="0" stop-color="#f18d00"/>
      <stop offset=".9" stop-color="#e6002d"/>
      <stop offset="1" stop-color="#e6002d"/>
    </linearGradient>
    <clipPath id="clippath-1">
      <path class="cls-2" d="M0,13.63v1.22c5.64-5.46,15.43-7.65,26.57-7.65s20.94,2.19,26.58,7.65v-1.22C53.15,5.43,41.01,0,26.57,0S0,5.43,0,13.63"/>
    </clipPath>
    <linearGradient id="_名称未設定グラデーション_6" data-name="名称未設定グラデーション 6" x1="-123.49" y1="127.42" x2="-122.49" y2="127.42" gradientTransform="translate(-2684.82 2627.72) rotate(90) scale(21.28 -21.28)" gradientUnits="userSpaceOnUse">
      <stop offset="0" stop-color="#f18d00"/>
      <stop offset=".36" stop-color="#eb4217"/>
      <stop offset=".62" stop-color="#e71227"/>
      <stop offset=".75" stop-color="#e6002d"/>
      <stop offset="1" stop-color="#e6002d"/>
    </linearGradient>
  </defs>
  <g id="_レイヤー_1-2" data-name="レイヤー 1">
    <g>
      <path class="cls-3" d="M202.15,39.75c-.72,0-1.3-.58-1.3-1.3s.58-1.3,1.3-1.3,1.3.58,1.3,1.3-.58,1.3-1.3,1.3M202.15,37.73c-.41,0-.72.31-.72.71s.32.72.72.72.72-.32.72-.72-.32-.71-.72-.71"/>
      <path class="cls-3" d="M107.93,34.06c.59,0,.99-.88,1.16-1.85,0-.02.02-.03.04-.03h.75s.04.02.04.04v.7c-.01.28.24.45.5.45s.54-.15.54-.44v-.71s0-.04.03-.04h.93c.27,0,.41-.24.41-.45s-.14-.46-.41-.46c0,0-1.98.02-2.68.02-.03,0-.06-.02-.06-.06,0-.05,0-.11.01-.15.01-.16.11-.2.27-.21.66-.05,1.45-.07,2.13-.21.28-.06.44-.25.43-.5-.02-.24-.19-.45-.47-.45-.02,0-.06,0-.09.01-.8.15-1.44.2-2.23.26-.66.04-1.07.38-1.07.84v.02c0,.12,0,.25,0,.37,0,.69-.11,1.36-.63,2-.1.12-.14.24-.15.35,0,.25.24.5.54.5"/>
      <path class="cls-3" d="M111.94,32.7c-.09.1-.14.21-.14.3,0,.24.2.36.5.36.26,0,.72-.05,1.01-1.15,0-.02.02-.03.04-.03h.93s.04.02.04.04v.76c-.01.28.25.46.53.46.25,0,.51-.17.51-.45v-.77s0-.04.03-.04h1.05c.26,0,.41-.23.41-.46s-.16-.45-.42-.45c0,0-2.2.02-2.94.02-.02,0-.05-.02-.05-.06,0-.04,0-.09,0-.12.02-.19.13-.22.29-.23.65-.05,1.47-.09,2.06-.21.27-.06.41-.26.41-.47,0-.22-.18-.48-.44-.48-.03,0-.06,0-.1.01-.78.15-1.43.2-2.2.26-.64.05-1.02.42-1.02.88v.02c0,.14.01.23.01.35,0,.55-.06.97-.53,1.46"/>
      <path class="cls-3" d="M116.51,38.46c-.86-.09-1.5-.19-2.31-.51,0,0,.08,0,.1-.01.73-.07,1.08-.53,1.09-.88.02-.48.03-.94.03-1.41s-.01-.94-.03-1.4c-.02-.37-.51-.81-1.15-.82-.69-.01-1.37-.02-2.01-.02s-1.28.01-1.91.02c-.84.01-1.19.5-1.21.89-.02.44-.03.94-.03,1.46,0,.44.01.86.03,1.28.02.48.37.85,1.11.9.02,0,.09,0,.09,0-.75.38-1.48.51-2.35.58-.35.03-.52.28-.52.56,0,.21.21.53.58.53.32,0,1.87-.23,3.03-.87.18-.1.29-.26.29-.41s-.09-.26-.2-.36c.36,0,.72,0,1.09,0s.69,0,1.06,0c-.1.1-.17.2-.17.33,0,.15.08.3.26.39,1.21.66,2.84.87,3.02.87.42,0,.6-.39.6-.6s-.14-.48-.48-.51M110.15,34.55c.01-.18.16-.35.49-.36.51-.01,1.06-.02,1.59-.02s1.09.01,1.59.02c.33.01.48.19.49.36v.11s-.02.04-.04.04h-4.1s-.04-.02-.04-.04v-.11ZM110.13,35.88v-.47s.02-.04.04-.04h4.14s.04.02.04.04v.47s-.02.04-.04.04h-4.14s-.04-.02-.04-.04M112.24,37.18c-1.88,0-2.08,0-2.09-.38v-.17s.02-.04.04-.04h4.1s.04.02.04.04v.17c-.01.38-.21.38-2.09.38"/>
      <path class="cls-3" d="M64.35,39.02c-.2,0-.38-.09-.49-.24-.08-.11-.18-.35.02-.74.51-1.03,1.25-2.65,1.91-4.72,0-.01,0-.03,0-.04,0-.01-.02-.02-.03-.02h0c-.16.01-.31.02-.45.02-.42,0-.77-.06-1.08-.19-.33-.14-.44-.52-.33-.79.03-.09.15-.29.44-.29.09,0,.19.02.3.06.25.09.53.13.84.13.2,0,.41-.02.63-.06.08-.35.06-.59.03-.93l-.02-.25c-.02-.32.22-.49.47-.53.03,0,.06,0,.09,0,.27,0,.56.14.62.47.04.23.04.49.02.76,0,.02,0,.03.02.04,0,0,.02,0,.02,0,0,0,.01,0,.02,0,.1-.06.2-.11.29-.16.1-.07.21-.1.31-.1.09,0,.18.02.26.07.19.11.31.3.3.51,0,.13-.06.36-.41.53-.34.17-.73.33-1.09.44-.57,1.92-1.24,3.74-2.06,5.6-.11.25-.33.41-.58.43-.02,0-.04,0-.06,0"/>
      <path class="cls-3" d="M70.15,38.94c-1.21,0-2.13-.42-2.51-.85-.27-.3-.19-.71.04-.92.06-.06.19-.15.37-.15.15,0,.29.07.43.21.39.39.82.47,1.35.47.33,0,.72-.03,1.17-.07.03,0,.06,0,.08,0,.39,0,.57.27.6.5.04.29-.13.64-.53.71-.33.07-.68.1-1.01.1"/>
      <path class="cls-3" d="M71.36,34.37c-.07,0-.14-.01-.22-.04-.42-.14-.95-.23-1.42-.23-.32,0-.59.04-.79.12-.06.02-.12.03-.18.03-.11,0-.21-.04-.29-.11-.14-.12-.21-.31-.17-.5.02-.12.11-.34.43-.45.17-.06.63-.2,1.25-.2.49,0,.98.08,1.45.25.4.14.52.49.43.77-.06.16-.22.35-.48.35"/>
      <path class="cls-3" d="M80.02,38.98c-.29,0-.54-.05-.76-.16-.35-.17-.77-.57-.76-1.49,0-.23.02-.42.03-.6.02-.23.04-.45.02-.72-.01-.3-.13-.48-.34-.53-.04-.01-.09-.02-.14-.02-.5,0-1.3.54-1.52.93l-.12.21c-.23.41-.48.83-.58,1.29-.19.83-.43.93-.7.97-.03,0-.07,0-.1,0-.23,0-.43-.09-.55-.24-.09-.12-.18-.33-.04-.67.44-1.09,1-2.17,1.79-3.38.44-.68.85-1.33,1.24-1.97l.53-.85c.09-.15.21-.32.32-.48.12-.17.23-.33.29-.45.11-.2.29-.31.51-.31.11,0,.22.03.32.08.27.15.46.47.26.86-.1.17-.18.29-.26.4-.05.07-.12.14-.18.22l-.14.16c-.46.51-.82.97-1.18,1.48-.19.28-.36.53-.52.77l-.1.15s0,.04,0,.05c0,.01.02.01.03.01,0,0,.01,0,.02,0,.28-.14.64-.22.96-.22.21,0,.4.03.57.1.33.13.73.46.8,1.28.02.25,0,.49-.02.72-.02.17-.03.34-.03.51,0,.33.11.56.32.65.07.03.16.05.26.05.3,0,.67-.17.98-.45.57-.51.81-1.05,1.01-1.55.1-.24.27-.39.49-.42.02,0,.05,0,.07,0,.21,0,.42.11.54.29.15.21.15.48.02.74-.28.54-.72,1.32-1.41,1.86-.55.43-1.31.71-1.94.71"/>
      <path class="cls-3" d="M102.14,39.37c-.21,0-.39-.11-.49-.32-.64-1.26-1.59-2.71-2.36-3.61-.76-.89-.72-1.71.13-2.6l.47-.49c.63-.65,1.28-1.31,1.81-2.03.14-.18.31-.27.51-.27.03,0,.06,0,.08,0,.24.03.47.21.56.44.08.21.04.44-.11.63-.35.43-.94.96-1.5,1.48-.34.31-.67.61-.93.87-.46.46-.49.78-.13,1.23.18.22.59.72.59.72.85,1.04,1.58,1.93,2.02,2.91.2.42-.04.82-.37.97-.09.04-.19.07-.29.07"/>
      <path class="cls-3" d="M123.71,39.38c-.67,0-1.2-.11-1.59-.33-.62-.35-.96-.82-.98-1.36-.03-.77.6-1.62,1.75-2.38l.13-.08c.11-.07.23-.15.37-.23.02-.01.02-.03.02-.05-.12-.32-.31-.51-.56-.56-.04,0-.09-.01-.14-.01-.34,0-.75.24-1.11.66l-.08.09c-.08.1-.15.19-.23.25-.2.18-.4.22-.53.22-.17,0-.32-.06-.42-.18-.15-.16-.2-.47.15-.78.14-.13.61-.58.9-1.04.17-.28.33-.57.46-.86,0-.01,0-.03,0-.04,0-.01-.02-.02-.04-.02h0c-.16.02-.3.03-.44.03-.33,0-.59-.06-.82-.17-.26-.13-.41-.34-.41-.58,0-.21.1-.39.28-.49.08-.04.16-.06.25-.06.14,0,.29.05.44.15.08.06.21.08.4.08.23,0,.47-.04.62-.07.03,0,.06,0,.09-.01.02,0,.06-.02.07-.04.07-.29.09-.51.11-.88.03-.38.34-.51.59-.51.29,0,.57.16.58.46.01.21-.03.41-.06.55,0,.02,0,.03.01.04,0,0,.02.01.03.01,0,0,.01,0,.02,0,.11-.05.23-.09.32-.14.1-.06.2-.09.3-.09.09,0,.18.02.26.07.17.1.28.29.27.49,0,.13-.07.38-.42.55-.25.12-.68.25-1.19.36-.16.34-.32.67-.48.99,0,.01,0,.03,0,.04,0,.01.02.02.04.02,0,0,0,0,0,0,.07,0,.14-.01.21-.01.67,0,1.21.34,1.51.95,0,.01.01.02.02.02,0,0,0,0,.01,0,0,0,.01,0,.02,0,.37-.19.85-.43,1.29-.62.22-.09.54-.23.87-.41.14-.08.28-.12.41-.12.14,0,.25.05.31.09.19.12.31.34.29.57,0,.23-.14.42-.36.53-.23.11-.41.18-.66.26-.18.06-.34.12-.54.19-.4.15-.87.36-1.37.59,0,.42.01.86,0,1.22-.03.48-.34.71-.62.72h0c-.16,0-.29-.05-.38-.15-.08-.08-.18-.25-.15-.52,0-.18.02-.39.02-.59,0-.02,0-.03-.02-.04,0,0-.01,0-.02,0,0,0-.01,0-.02,0-.06.03-.12.07-.18.1-.88.57-1.05,1-1.04,1.26.02.29.25.46.45.56.19.1.44.14.76.14.51,0,1.08-.13,1.42-.24.11-.03.21-.05.31-.05.18,0,.35.06.46.17.15.14.21.36.15.56-.07.26-.3.46-.64.55-.31.08-.88.17-1.48.17"/>
      <path class="cls-3" d="M131.54,39.66c-.18,0-.34-.09-.45-.26-.26-.39-.88-.91-1.36-1.16-.21-.11-.32-.28-.32-.47,0-.25.19-.52.56-.52.38,0,2.21,1,2.21,1.77,0,.39-.33.64-.63.64"/>
      <path class="cls-3" d="M140.46,39.68c-.13,0-.26,0-.38-.03-1.03-.17-1.66-1-1.7-2.22-.01-.34,0-.65,0-.95,0-.02-.02-.04-.04-.05-.28-.03-.55-.07-.81-.13-.42-.11-.54-.37-.57-.52-.05-.21.01-.44.17-.58.09-.08.2-.13.33-.13.06,0,.12.01.18.03.28.09.54.14.8.16,0,0,0,0,0,0,.01,0,.02,0,.03-.01,0,0,.02-.02.02-.03.04-.43.09-.85.14-1.3v-.08s0-.04-.03-.05c-.38-.05-.73-.13-.88-.19-.27-.09-.44-.27-.48-.5-.04-.22.05-.46.23-.6.1-.08.21-.12.32-.12.07,0,.14.01.2.04.24.1.49.17.74.21h0s.02,0,.03,0c.01,0,.02-.02.02-.03,0,0,.03-.27.04-.34.06-.61.08-1.02.11-1.45v-.25c.04-.42.34-.56.58-.56.33.01.65.25.65.62,0,.35-.05.66-.1,1.01-.03.2-.06.41-.09.65,0,.07-.01.14-.02.2v.11s0,.03,0,.04c0,0,.02.01.03.01,0,0,0,0,0,0,.06-.01.12-.03.18-.04.06-.01.11-.02.17-.02.31,0,.48.22.53.41.07.28-.05.61-.42.72-.22.07-.43.09-.65.11-.02,0-.04.02-.04.04-.06.47-.11.91-.15,1.33,0,.01,0,.03.01.04,0,0,.02.01.03.01h0c.16-.02.31-.05.45-.09.07-.02.14-.03.21-.03.32,0,.5.22.56.41.08.26-.02.6-.38.72-.28.09-.6.15-.96.18-.02,0-.04.02-.04.04-.02.28-.02.56,0,.86.03.65.33,1.09.84,1.19.07.01.14.02.21.02.42,0,1.01-.24,1.33-.92.35-.76.18-1.48-.56-2.28-.17-.19-.23-.4-.17-.58.06-.19.24-.33.46-.38.04,0,.09-.01.13-.01.2,0,.39.09.53.25.94,1.09,1.21,2.2.79,3.32-.45,1.19-1.65,1.74-2.57,1.74"/>
      <path class="cls-3" d="M150,39.46c-.3,0-.46-.14-.53-.23-.13-.16-.16-.39-.08-.59.09-.22.29-.37.56-.41,1.11-.16,1.94-.49,2.54-1.01.64-.57.8-1.22.4-1.67-.28-.32-.71-.49-1.27-.49-.41,0-.79.09-.97.14-.59.18-1.14.46-1.68.74-.28.14-.54.27-.81.4-.12.06-.24.08-.35.08-.14,0-.26-.04-.37-.11-.18-.13-.29-.37-.26-.59.03-.23.18-.42.42-.52.15-.06.31-.13.48-.2.76-.32,1.57-.66,2.33-.85.22-.06.68-.15,1.2-.15.9,0,1.61.26,2.11.78.42.43.62.94.59,1.48-.04.67-.42,1.35-1.1,1.91-.78.65-1.77,1.07-3.04,1.28-.07.01-.13.01-.18.01"/>
      <path class="cls-3" d="M161.56,39.19c-.76,0-1.4-.12-1.86-.35-.68-.35-1.09-.89-1.16-1.53-.09-.85.43-1.79,1.42-2.58l.1-.08c.06-.05.12-.1.18-.14.02-.01.02-.03.02-.05-.31-.93-.85-1.97-1.31-2.53-.17-.2-.21-.43-.13-.62.08-.2.29-.35.53-.38.03,0,.05,0,.08,0,.21,0,.4.1.53.28.47.66.95,1.62,1.27,2.51,0,.01.02.02.03.03,0,0,0,0,.01,0,0,0,.02,0,.02,0,.6-.42,1.22-.8,1.88-1.17.12-.06.24-.1.36-.1.11,0,.21.03.3.08.19.11.3.32.29.55,0,.25-.17.47-.44.61-.98.5-2.22,1.17-3.16,1.97-.61.51-.91,1.03-.86,1.45.04.29.24.53.59.69.25.12.6.19,1.04.19.7,0,1.53-.17,1.98-.33.11-.04.22-.07.32-.07.19,0,.32.08.4.14.17.15.24.38.19.61-.06.28-.28.49-.61.58-.59.16-1.34.26-2.01.26"/>
      <path class="cls-3" d="M172.78,39.42c-2.54,0-3.6,0-3.64-1.56-.02-.63-.03-1.57-.03-2.57s.01-1.99.03-2.69c.06-1.39,1.11-1.39,2.23-1.39.02,0,.04-.01.04-.03.13-.42.23-.87.27-1.12.03-.23.26-.39.59-.39s.69.18.69.52c0,.16-.09.44-.3.94,0,.01,0,.03,0,.04s.02.02.04.02c.83,0,1.55,0,1.95.03.81.05,1.37.57,1.39,1.3.02.68.03,1.77.03,2.92,0,.94-.01,1.85-.02,2.39-.03,1.01-.58,1.5-1.74,1.55-.42.02-.96.03-1.53.03M170.24,36.88s-.02,0-.03.01c0,0-.01.02-.01.03,0,.22,0,.45.02.71.02.7.26.73,2.44.73.59,0,1.12-.01,1.47-.03.83-.04.83-.47.83-1.41,0-.01,0-.02-.01-.03,0,0-.02-.01-.03-.01h-4.67ZM170.22,34.59s-.04.02-.04.04v1.2s.02.04.04.04h4.7s.04-.02.04-.04v-1.2s-.02-.04-.04-.04h-4.7ZM172.63,32.2c-.7,0-1.31.01-1.65.03-.76.04-.79.32-.79,1.3,0,.01,0,.02.01.03,0,0,.02.01.03.01h4.67s.02,0,.03-.01c0,0,.01-.02.01-.03,0-.23-.01-.44-.02-.6-.03-.73-.25-.73-2.3-.73"/>
      <path class="cls-3" d="M183.75,39.42c-.97,0-1.76-.01-2.42-.04-1.2-.05-1.7-.49-1.74-1.51-.02-.68-.03-1.4-.03-2.13s.01-1.49.03-2.23c.03-.83.57-1.33,1.45-1.36.55-.02,1.23-.03,1.96-.03.02,0,.04-.02.04-.04v-1.7c0-.34.29-.52.57-.52s.59.18.59.52v1.7s.02.04.04.04c.78,0,1.52.01,2.14.03.8.02,1.35.54,1.37,1.29.02.7.03,1.56.03,2.42,0,.58,0,1.23-.02,1.98-.03,1.01-.6,1.51-1.74,1.55-.74.02-1.51.03-2.29.03M184.24,36.14s-.04.02-.04.04v2.15s0,.02.01.03c0,0,.02.01.03.01.56,0,1.12-.01,1.65-.02.61-.01.75-.29.77-.73.02-.44.03-.94.03-1.45,0-.01,0-.02-.01-.03s-.02-.01-.03-.01h-2.41ZM180.69,36.14s-.02,0-.03.01-.01.02-.01.03c0,.37.01.72.02,1.04v.44c.03.71.17.71,2.36.71.01,0,.02,0,.03-.01,0,0,.01-.02.01-.03v-2.15s-.02-.04-.04-.04h-2.33ZM184.24,33.13s-.04.02-.04.04v1.91s.02.04.04.04h2.41s.02,0,.03-.01c0,0,.01-.02.01-.03,0-1.88-.05-1.92-.75-1.93-.53-.02-1.18-.02-1.71-.02M183.02,33.13c-.48,0-1,0-1.6.02-.56.01-.73.16-.75.66v.33c-.02.33-.03.63-.03.94,0,.01,0,.02.01.03,0,0,.02.01.03.01h2.33s.04-.02.04-.04v-1.91s0-.02-.01-.03c0,0-.02-.01-.03-.01"/>
      <path class="cls-3" d="M196.98,38.69c-.62,0-1.76-.1-2.39-.78-.25-.27-.18-.63.02-.83.11-.11.25-.17.39-.17s.29.06.42.18c.26.24.7.36,1.29.36.42,0,.92-.06,1.49-.18.07-.01.13-.02.19-.02.34,0,.51.22.56.43.08.32-.1.73-.51.84-.44.11-.96.17-1.47.17"/>
      <path class="cls-3" d="M195.13,33.49c-.14,0-.27-.05-.37-.16-.14-.15-.2-.36-.14-.55.06-.2.23-.34.48-.4.53-.13,1.11-.2,1.69-.2.46,0,.9.05,1.25.13.42.1.57.44.5.73-.05.19-.21.42-.54.42-.05,0-.11,0-.17-.02-.42-.09-.84-.13-1.24-.13-.45,0-.89.05-1.33.17-.05.01-.09.02-.14.02"/>
      <path class="cls-3" d="M192.19,39.2s-.07,0-.11-.01c-.14-.03-.34-.15-.48-.5-.75-1.85-.25-4.47.04-6.04.06-.31.11-.58.14-.8.04-.26.17-.44.37-.51.07-.03.14-.04.21-.04.15,0,.28.05.39.14.14.12.21.3.17.49-.03.15-.07.34-.12.57-.25,1.15-.67,3.07-.47,3.95,0,.02.02.03.04.03h0s.03-.01.04-.03c.04-.09.16-.29.18-.33.13-.2.29-.25.4-.25.08,0,.17.03.24.07.2.12.33.4.19.64-.43.76-.59,1.26-.65,1.55-.02.1-.02.19-.02.3,0,.2,0,.44-.2.61-.11.1-.24.15-.37.15"/>
      <path class="cls-3" d="M86.82,39.18s-.1,0-.14-.02c-.22-.06-.39-.25-.48-.54-.3-.95-.36-2.24-.18-3.92.07-.69.18-1.35.26-1.94.09-.57.16-1.04.18-1.38.02-.28.15-.48.35-.57.07-.03.16-.05.24-.05.14,0,.28.05.39.13.16.12.24.32.21.52-.03.2-.08.48-.14.8v.06c-.09.46-.19,1.01-.27,1.56-.18,1.15-.25,1.93-.21,2.31,0,.02.02.04.04.04,0,0,0,0,0,0,.02,0,.03-.01.04-.03.03-.06.09-.21.12-.29.09-.19.22-.29.38-.3h0c.18,0,.32.08.41.21.13.19.13.47-.01.77-.13.27-.24.55-.34.88-.09.29-.16.54-.2.7-.03.11-.03.21-.04.32,0,.21,0,.4-.2.59-.12.11-.26.17-.41.17"/>
      <path class="cls-3" d="M94.08,31.85c-.63,0-1.15-.51-1.15-1.15s.51-1.16,1.15-1.16,1.16.53,1.16,1.16-.52,1.15-1.16,1.15M94.08,30.19c-.28,0-.49.23-.49.51s.21.49.49.49.51-.22.51-.49-.23-.51-.51-.51"/>
      <path class="cls-3" d="M90.69,39.15c-.36,0-.7-.09-1.02-.28-.48-.28-.76-.74-.73-1.23.03-.5.35-.93.9-1.17.34-.15.73-.23,1.14-.23.24,0,.49.03.75.07,0,0,0,0,0,0,.01,0,.02,0,.03,0,.01,0,.01-.02.01-.04,0-.08,0-.15-.01-.23,0-.07-.01-.15-.02-.23-.02-.31-.04-.81-.06-1.38l-.02-.73s0-.02-.02-.03c0,0-.02-.01-.03-.01h0c-.43.06-.82.09-1.18.09-.19,0-.38,0-.57-.02-.23-.02-.41-.14-.49-.33-.08-.19-.05-.42.08-.59.11-.14.29-.22.49-.22.05,0,.1,0,.15.01.19.03.4.05.62.05.27,0,.56-.03.88-.08.02,0,.04-.02.04-.04v-.06c-.01-.6-.02-1.1,0-1.42,0-.22.11-.38.28-.47.08-.04.18-.07.29-.07.13,0,.26.04.36.1.15.1.22.25.21.42-.02.29-.03.71-.03,1.22,0,.01,0,.03.02.03,0,0,.02,0,.03,0,0,0,.17-.04.17-.04.12-.03.22-.06.32-.09.07-.02.14-.03.21-.03.16,0,.32.06.44.17.15.14.21.34.16.51-.03.12-.15.34-.54.44-.22.06-.49.12-.74.18-.02,0-.03.02-.03.04.01.84.04,1.67.07,2.22,0,.12.02.26.03.42.02.18.03.36.04.54.51.27.93.55,1.25.84.21.19.29.44.23.69-.06.24-.24.44-.45.49-.04.01-.08.02-.13.02-.15,0-.29-.07-.41-.19-.19-.19-.4-.37-.61-.52,0,0-.02,0-.03,0,0,0,0,0,0,0-.01,0-.02,0-.03.02-.26.48-.76.87-1.32,1.05-.22.07-.44.1-.65.1M90.78,37.23c-.22,0-.42.04-.59.12-.12.06-.21.18-.22.32,0,.06,0,.19.15.28.15.08.32.13.52.13.17,0,.34-.03.49-.1.26-.11.45-.29.54-.52,0-.01,0-.02,0-.03,0-.01-.01-.02-.02-.02-.31-.11-.6-.17-.86-.17"/>
      <g class="cls-7">
        <rect class="cls-1" x="-.23" y="15.06" width="53.61" height="27.92" transform="translate(-.5 .47) rotate(-1)"/>
      </g>
      <g class="cls-6">
        <rect class="cls-4" x="-.13" y="-.46" width="53.4" height="15.77" transform="translate(-.13 .46) rotate(-1)"/>
      </g>
      <path class="cls-5" d="M165.7,13.17h-3.88c-.22,0-.32.09-.32.31v.74c0,.22.11.32.32.32h2.11v2.94c0,.72-.99,1.23-2.34,1.23-1.99,0-3.5-2.22-3.5-5.49,0-3.07,1.3-4.96,3.41-4.96,1.66,0,2.16,1.22,2.38,1.88.11.34.53.39,1.35-.03.72-.37.86-.52.6-1.1-.4-.89-1.68-2.08-4.2-2.08-3.61,0-5.9,2.65-5.9,6.57,0,4.17,2.45,6.71,5.92,6.71,2.4,0,4.39-1.01,4.39-1.97v-4.76c0-.22-.11-.31-.32-.31"/>
      <path class="cls-5" d="M173.84,10.95c-.49-.4-1.26-.59-2.02-.59-1.15,0-2.2.27-2.76.52-.54.25-.74.54-.74,1.14v7.61c0,.22.11.31.32.31h1.42c.22,0,.33-.09.33-.31v-7.22c0-.58.43-.92,1.12-.92.63,0,.88.45,1.37.96.22.23.6.16.94-.55.27-.55.29-.75.02-.96"/>
      <path class="cls-5" d="M191.76,10.59h-1.44c-.22,0-.31.09-.31.31v6.84c0,.67-.23,1.15-1.66,1.15-1.01,0-1.66-.54-1.66-1.62v-6.37c0-.22-.09-.31-.31-.31h-1.44c-.22,0-.31.09-.31.31v6.44c0,2.56,2.45,2.82,3.68,2.82,1.48,0,2.64-.31,3.1-.58.41-.23.65-.58.65-1.26v-7.42c0-.22-.09-.31-.31-.31"/>
      <path class="cls-5" d="M197.86,10.36c-1.14,0-2.29.29-2.78.62-.5.34-.68.67-.68,1.32v11.18c0,.22.11.31.32.31h1.43c.22,0,.31-.09.31-.31v-3.8c.23.16.87.49,1.77.49,2.83,0,4.2-2.63,4.2-5.14s-1.23-4.66-4.57-4.66M197.86,18.93c-.7,0-1.12-.22-1.4-.45v-5.99c0-.65.45-.99,1.35-.99,1.25,0,2.53,1.15,2.53,3.63,0,2.27-.96,3.81-2.47,3.81"/>
      <path class="cls-5" d="M178.77,10.36c-2.67,0-4.24,2.11-4.24,4.87s1.52,4.94,4.24,4.94,4.26-2.18,4.26-4.94-1.59-4.87-4.26-4.87M178.79,18.89c-1.52,0-2.15-1.84-2.15-3.82s.62-3.55,2.09-3.55,2.18,1.8,2.18,3.77-.54,3.61-2.13,3.61"/>
      <path class="cls-5" d="M73.68,7.2h-1.17c-.22,0-.31.09-.31.31v9.1l-5.94-9.1c-.12-.2-.25-.31-.47-.31h-1.71c-.22,0-.31.09-.31.31v12.12c0,.22.09.31.31.31h1.17c.22,0,.33-.09.33-.31v-9.65l6.3,9.65c.12.2.23.31.49.31h1.32c.22,0,.32-.09.32-.31V7.51c0-.22-.11-.31-.32-.31"/>
      <path class="cls-5" d="M133.54,10.37c-2.14,0-3.24.94-3.64,1.71-.15.29-.29.58.61.96.9.38.97.18,1.08-.17.19-.57.65-1.4,1.66-1.4.77,0,1.32.56,1.32,1.46v1.22c-2.24.43-5.21,1.04-5.21,3.48,0,1.75,1.73,2.54,3.82,2.54,1.14,0,2.29-.29,2.69-.56.51-.34.68-.67.68-1.44v-5.08c0-1.84-1.37-2.72-3.01-2.72M134.57,18.05c0,.78-.74,1.01-1.43,1.01-1.17,0-1.8-.72-1.8-1.59,0-1.57,1.55-2.06,3.23-2.4v2.97Z"/>
      <path class="cls-5" d="M114,10.36c-1.34,0-2.43.25-3.03.54-.54.27-.72.53-.72,1.12v7.61c0,.22.11.31.33.31h1.42c.22,0,.32-.09.32-.31v-6.96c0-.58.15-1.19,1.6-1.19s1.88.86,1.88,1.75v6.4c0,.22.09.31.31.31h1.44c.22,0,.31-.09.31-.31v-6.49c0-2.17-1.95-2.78-3.86-2.78"/>
      <path class="cls-5" d="M124.71,10.36c-1.16,0-2.08.49-2.6,1.01v-3.86c0-.22-.11-.31-.32-.31h-1.42c-.22,0-.33.09-.33.31v12.12c0,.22.11.31.33.31h1.42c.21,0,.32-.09.32-.31v-7.22c.43-.47,1.03-.79,1.84-.79.9,0,1.64.56,1.64,1.73v6.28c0,.22.09.31.31.31h1.44c.22,0,.31-.09.31-.31v-6.57c0-1.79-1.39-2.71-2.94-2.71"/>
      <path class="cls-5" d="M148,10.36c-1.48,0-2.38.43-2.98,1.08-.59-.67-1.44-1.08-2.85-1.08-1.23,0-2.26.27-2.83.54-.5.24-.72.49-.72,1.12v7.61c0,.22.11.31.33.31h1.42c.21,0,.31-.09.31-.31v-6.91c0-.92.52-1.24,1.55-1.24s1.66.63,1.66,1.75v6.4c0,.22.09.31.31.31h1.43c.21,0,.32-.09.32-.31v-6.44c0-1.05.45-1.71,1.55-1.71s1.66.63,1.66,1.75v6.4c0,.22.09.31.31.31h1.42c.22,0,.31-.09.31-.31v-6.49c0-2.17-1.84-2.78-3.19-2.78"/>
      <path class="cls-5" d="M77.35,7.08c-.82,0-1.19.39-1.19,1.04s.37,1.04,1.19,1.04,1.19-.39,1.19-1.04-.37-1.04-1.19-1.04"/>
      <path class="cls-5" d="M78.07,10.6h-1.44c-.22,0-.31.09-.31.31v8.73c0,.22.09.31.31.31h1.44c.22,0,.31-.09.31-.31v-8.73c0-.22-.09-.31-.31-.31"/>
      <path class="cls-5" d="M93.93,10.36c-1.14,0-2.29.29-2.78.62-.51.34-.69.67-.69,1.32v11.18c0,.22.11.31.33.31h1.43c.21,0,.31-.09.31-.31v-3.8c.23.16.87.49,1.77.49,2.83,0,4.2-2.63,4.2-5.14s-1.23-4.66-4.56-4.66M93.93,18.93c-.7,0-1.12-.22-1.41-.45v-5.99c0-.65.45-.99,1.35-.99,1.24,0,2.53,1.15,2.53,3.63,0,2.27-.96,3.81-2.47,3.81"/>
      <path class="cls-5" d="M84.12,10.36c-1.14,0-2.29.29-2.78.62-.51.34-.69.67-.69,1.32v11.18c0,.22.11.31.32.31h1.43c.22,0,.31-.09.31-.31v-3.8c.24.16.87.49,1.77.49,2.83,0,4.2-2.63,4.2-5.14s-1.23-4.66-4.57-4.66M84.12,18.93c-.7,0-1.12-.22-1.41-.45v-5.99c0-.65.45-.99,1.35-.99,1.24,0,2.53,1.15,2.53,3.63,0,2.27-.96,3.81-2.47,3.81"/>
      <path class="cls-5" d="M104.33,10.36c-2.67,0-4.24,2.11-4.24,4.87s1.52,4.94,4.24,4.94,4.26-2.18,4.26-4.94-1.59-4.87-4.26-4.87M104.34,18.89c-1.52,0-2.15-1.84-2.15-3.82s.61-3.55,2.09-3.55,2.18,1.8,2.18,3.77-.54,3.61-2.13,3.61"/>
    </g>
  </g>
</svg>