<?xml version="1.0" encoding="UTF-8"?>
<svg id="_レイヤー_2" data-name="レイヤー 2" xmlns="http://www.w3.org/2000/svg" width="208.72" height="45.83" xmlns:xlink="http://www.w3.org/1999/xlink" viewBox="0 0 208.72 45.83">
  <defs>
    <style>
      .cls-1 {
        fill: url(#_名称未設定グラデーション_4);
      }

      .cls-1, .cls-2, .cls-3, .cls-4 {
        stroke-width: 0px;
      }

      .cls-2 {
        fill: none;
      }

      .cls-5 {
        clip-path: url(#clippath-1);
      }

      .cls-3 {
        fill: url(#_名称未設定グラデーション_3);
      }

      .cls-6 {
        clip-path: url(#clippath);
      }

      .cls-4 {
        fill: #e6002d;
      }
    </style>
    <clipPath id="clippath">
      <path class="cls-2" d="M44.41,15.45v10.22h-13.72v-10.22h-3.02c-3.03.03-5.47,2.39-5.47,5.3v10.17l-13.68-13.68c-1.15-1.15-2.67-1.78-4.31-1.78H0v21.63c0,2.89,2.45,5.24,5.48,5.24h3.02v-15.46h0l13.68,13.68c1.15,1.15,2.67,1.78,4.31,1.78h4.2v-10.23h13.72v10.23h3.02c3.02,0,5.47-2.35,5.47-5.24v-16.34c0-2.91-2.44-5.26-5.47-5.3h-3.02Z"/>
    </clipPath>
    <linearGradient id="_名称未設定グラデーション_3" data-name="名称未設定グラデーション 3" x1="-526.12" y1="116.08" x2="-525.12" y2="116.08" gradientTransform="translate(-3859.79 17618) rotate(90) scale(33.48 -33.48)" gradientUnits="userSpaceOnUse">
      <stop offset="0" stop-color="#f18d00"/>
      <stop offset=".9" stop-color="#e6002d"/>
      <stop offset="1" stop-color="#e6002d"/>
    </linearGradient>
    <clipPath id="clippath-1">
      <path class="cls-2" d="M0,13.56v1.21c5.61-5.44,15.36-7.62,26.45-7.62s20.84,2.18,26.45,7.62v-1.21C52.9,5.41,40.82,0,26.45,0S0,5.41,0,13.56"/>
    </clipPath>
    <linearGradient id="_名称未設定グラデーション_4" data-name="名称未設定グラデーション 4" x1="-526.12" y1="116.08" x2="-525.12" y2="116.08" gradientTransform="translate(-2432.17 11143.06) rotate(90) scale(21.18 -21.18)" gradientUnits="userSpaceOnUse">
      <stop offset="0" stop-color="#f18d00"/>
      <stop offset=".36" stop-color="#eb4217"/>
      <stop offset=".62" stop-color="#e71227"/>
      <stop offset=".75" stop-color="#e6002d"/>
      <stop offset="1" stop-color="#e6002d"/>
    </linearGradient>
  </defs>
  <g id="_レイヤー_1-2" data-name="レイヤー 1">
    <g>
      <g class="cls-6">
        <rect class="cls-3" x="-.23" y="14.99" width="53.36" height="27.79" transform="translate(-.5 .47) rotate(-1)"/>
      </g>
      <g class="cls-5">
        <rect class="cls-1" x="-.12" y="-.46" width="53.15" height="15.7" transform="translate(-.12 .46) rotate(-1)"/>
      </g>
      <path class="cls-4" d="M79.95,18.3h-1.95c-.36,0-.51.15-.51.51v15.12l-9.87-15.12c-.21-.33-.42-.51-.78-.51h-2.84c-.36,0-.51.15-.51.51v20.14c0,.36.15.51.51.51h1.95c.36,0,.54-.15.54-.51v-16.03l10.46,16.03c.21.33.39.51.81.51h2.19c.36,0,.54-.15.54-.51v-20.14c0-.36-.18-.51-.54-.51"/>
      <path class="cls-4" d="M173.35,26.41c.65-1.28,2.48-2.84,6.04-2.84,2.73,0,5,1.47,5,4.52v8.45c0,1.29-.3,1.83-1.14,2.4-.66.45-2.58.93-4.46.93-3.47,0-6.35-1.32-6.35-4.22,0-4.04,4.94-5.06,8.66-5.78v-2.03c0-1.5-.9-2.43-2.19-2.43-1.68,0-2.44,1.39-2.75,2.34-.19.57-.31.9-1.8.28-1.49-.63-1.26-1.12-1.01-1.6M181.1,31.38c-2.79.57-5.36,1.38-5.36,3.98,0,1.44,1.05,2.64,3,2.64,1.14,0,2.37-.39,2.37-1.68v-4.94Z"/>
      <path class="cls-4" d="M152.84,39.46h-2.4c-.36,0-.51-.15-.51-.51v-10.64c0-1.47-.72-2.91-3.12-2.91s-2.66,1.02-2.66,1.98v11.57c0,.36-.18.51-.54.51h-2.37c-.36,0-.54-.15-.54-.51v-12.65c0-.99.3-1.41,1.2-1.86.99-.48,2.82-.9,5.04-.9,3.18,0,6.42,1.02,6.42,4.62v10.79c0,.36-.15.51-.51.51"/>
      <path class="cls-4" d="M169.1,39.46h-2.4c-.36,0-.51-.15-.51-.51v-10.43c0-1.95-1.23-2.88-2.73-2.88-1.35,0-2.34.54-3.06,1.32v11.99c0,.36-.18.51-.54.51h-2.37c-.36,0-.54-.15-.54-.51v-20.14c0-.36.18-.51.54-.51h2.37c.36,0,.54.15.54.51v6.41c.87-.87,2.4-1.68,4.32-1.68,2.58,0,4.89,1.53,4.89,4.5v10.91c0,.36-.15.51-.51.51"/>
      <path class="cls-4" d="M208.21,39.46h-2.37c-.36,0-.51-.15-.51-.51v-10.64c0-1.86-.99-2.91-2.76-2.91s-2.58,1.11-2.58,2.85v10.7c0,.36-.18.51-.54.51h-2.37c-.36,0-.51-.15-.51-.51v-10.64c0-1.86-.99-2.91-2.76-2.91s-2.58.54-2.58,2.07v11.48c0,.36-.15.51-.51.51h-2.37c-.36,0-.54-.15-.54-.51v-12.65c0-1.05.36-1.47,1.2-1.86.96-.45,2.67-.9,4.71-.9,2.34,0,3.75.69,4.73,1.8.99-1.08,2.49-1.8,4.95-1.8,2.25,0,5.3,1.02,5.3,4.62v10.79c0,.36-.15.51-.51.51"/>
      <path class="cls-4" d="M86.05,21.53c-1.36,0-1.98-.65-1.98-1.72s.62-1.72,1.98-1.72,1.98.65,1.98,1.72-.62,1.72-1.98,1.72M87.24,39.46h-2.4c-.36,0-.51-.15-.51-.51v-14.51c0-.36.15-.51.51-.51h2.4c.36,0,.51.15.51.51v14.51c0,.36-.15.51-.51.51"/>
      <path class="cls-4" d="M114.2,39.82c-1.5,0-2.55-.54-2.93-.81v6.31c0,.36-.15.51-.51.51h-2.37c-.36,0-.54-.15-.54-.51v-18.57c0-1.08.3-1.62,1.14-2.19.81-.54,2.73-1.02,4.61-1.02,5.55,0,7.58,3.54,7.58,7.73s-2.28,8.54-6.98,8.54M113.51,25.44c-1.5,0-2.25.57-2.25,1.65v9.95c.48.39,1.17.75,2.33.75,2.52,0,4.11-2.55,4.11-6.33,0-4.1-2.13-6.02-4.19-6.02"/>
      <path class="cls-4" d="M97.9,39.82c-1.5,0-2.55-.54-2.94-.81v6.31c0,.36-.15.51-.51.51h-2.37c-.36,0-.54-.15-.54-.51v-18.57c0-1.08.3-1.62,1.14-2.19.81-.54,2.73-1.02,4.61-1.02,5.55,0,7.59,3.54,7.59,7.73s-2.28,8.54-6.98,8.54M97.21,25.44c-1.5,0-2.25.57-2.25,1.65v9.95c.48.39,1.17.75,2.33.75,2.52,0,4.11-2.55,4.11-6.33,0-4.1-2.13-6.02-4.2-6.02"/>
      <path class="cls-4" d="M130.87,39.85c-4.53,0-7.05-3.63-7.05-8.21s2.61-8.1,7.05-8.1,7.07,3.51,7.07,8.1-2.55,8.21-7.07,8.21M130.8,25.47c-2.46,0-3.47,2.67-3.47,5.9s1.05,6.35,3.57,6.35,3.54-2.72,3.54-5.99-1.08-6.26-3.63-6.26"/>
    </g>
  </g>
</svg>